<?xml version="1.0" encoding="utf-8"?>
<!-- Generator: Adobe Illustrator 26.2.1, SVG Export Plug-In . SVG Version: 6.00 Build 0)  -->
<svg version="1.1" id="レイヤー_1" xmlns="http://www.w3.org/2000/svg" xmlns:xlink="http://www.w3.org/1999/xlink" x="0px"
	 y="0px" viewBox="0 0 18.9 32.5" style="enable-background:new 0 0 18.9 32.5;" xml:space="preserve">
<style type="text/css">
	.st0{fill:#5E1D13;}
	.st1{clip-path:url(#SVGID_00000018927994585296923580000016917818278081863842_);}
</style>
<g transform="translate(0.5)">
	<path class="st0" d="M9,3.9l-4.5,7.3h9.1L9,3.9z"/>
	<path class="st0" d="M-0.5,21.2v7.3L4,21.2H-0.5z"/>
	<path class="st0" d="M13.9,21.2l4.5,7.3v-7.3H13.9z"/>
	<g>
		<defs>
			<rect id="SVGID_1_" x="-0.5" width="18.9" height="32.5"/>
		</defs>
		<clipPath id="SVGID_00000141440194659776523860000001654411644860121005_">
			<use xlink:href="#SVGID_1_"  style="overflow:visible;"/>
		</clipPath>
		<g style="clip-path:url(#SVGID_00000141440194659776523860000001654411644860121005_);">
			<path class="st0" d="M9,17.7L-0.3,6.2c-0.1-0.1-0.1-0.1-0.2-0.1v0.7l9.2,11.6c0.1,0.1,0.3,0.1,0.4,0c0,0,0,0,0,0l9.3-11.6l0,0
				V6.1c-0.1,0-0.2,0-0.2,0.1L9,17.7z"/>
			<path class="st0" d="M9,25.6L-0.3,14c-0.1-0.1-0.1-0.1-0.2-0.1v0.7l9.2,11.6c0.1,0.1,0.3,0.1,0.4,0c0,0,0,0,0,0l9.3-11.6l0,0
				v-0.7c-0.1,0-0.2,0-0.2,0.1L9,25.6z"/>
			<path class="st0" d="M9,21.2l-9-11.3c-0.1-0.1-0.3-0.2-0.4-0.2v1.4l9,11.3c0.2,0.2,0.5,0.3,0.8,0.1c0,0,0.1-0.1,0.1-0.1l9-11.3
				l0,0V9.7c-0.2,0-0.3,0.1-0.4,0.2L9,21.2z"/>
			<rect x="-0.5" class="st0" width="18.9" height="2.4"/>
			<rect x="-0.5" y="30.1" class="st0" width="18.9" height="2.4"/>
		</g>
	</g>
</g>
</svg>
